<?xml version="1.0"?>
<svg version="1.1" xmlns="http://www.w3.org/2000/svg" width="200px" height="60px" style=""><path fill="#d97d1a" d="M29.335,41.004c0,0.21-0.105,0.336-0.378,0.336l-1.869,0c-0.441,0-0.588-0.168-0.714-0.504l-1.092-3.087l-5.313,0l-1.092,3.15c-0.084,0.273-0.231,0.441-0.567,0.441l-1.869,0c-0.21,0-0.294-0.105-0.294-0.273c0-0.063,0-0.147,0.042-0.231l5.124-13.608c0.105-0.252,0.252-0.42,0.567-0.42l1.68,0c0.315,0,0.504,0.147,0.588,0.378l5.145,13.545c0.042,0.105,0.042,0.189,0.042,0.273z M24.568,35.712l-1.491-4.431c-0.189-0.588-0.315-1.029-0.42-1.365l-0.042,0c-0.105,0.357-0.231,0.798-0.441,1.386l-1.491,4.41l3.885,0z M24.799,23.49c0,0.126-0.084,0.231-0.252,0.315l-2.961,1.575c-0.147,0.084-0.252,0.126-0.357,0.126c-0.126,0-0.231-0.084-0.357-0.252l-0.252-0.357c-0.063-0.105-0.105-0.168-0.105-0.252c0-0.105,0.063-0.21,0.252-0.357l2.667-1.89c0.168-0.105,0.273-0.189,0.378-0.189c0.126,0,0.231,0.084,0.357,0.273l0.504,0.714c0.084,0.105,0.126,0.21,0.126,0.294z M34.6165,40.815c0,0.357-0.168,0.525-0.462,0.525l-1.596,0c-0.294,0-0.483-0.147-0.483-0.504l0-13.776c0-0.357,0.147-0.462,0.42-0.504l1.512-0.21c0.042,0,0.105-0.021,0.147-0.021c0.252,0,0.462,0.126,0.462,0.462l0,14.028z M47.122,31.449c0,0.063-0.021,0.126-0.042,0.21l-3.675,9.282c-0.126,0.315-0.294,0.399-0.609,0.399l-1.092,0c-0.315,0-0.525-0.084-0.63-0.378l-3.612-9.366c-0.021-0.063-0.042-0.126-0.042-0.189c0-0.168,0.105-0.252,0.378-0.252l1.848,0c0.357,0,0.525,0.147,0.609,0.42l1.596,4.893c0.21,0.63,0.399,1.323,0.525,1.785l0.021,0c0.105-0.399,0.315-1.134,0.504-1.722l1.638-4.935c0.105-0.357,0.273-0.441,0.651-0.441l1.512,0c0.273,0,0.42,0.105,0.42,0.294z M59.8165,40.941c0,0.252-0.168,0.399-0.42,0.399l-1.008,0c-1.092,0-1.575-0.525-1.722-1.239l-0.042,0c-0.525,0.777-1.89,1.491-3.045,1.491c-2.961,0-4.305-2.436-4.305-5.166c0-3.633,2.184-5.544,4.536-5.544c1.113,0,2.163,0.504,2.688,1.218l0.042-0.567c0.021-0.231,0.189-0.378,0.441-0.378l1.47,0c0.273,0,0.441,0.147,0.441,0.462l0,7.287c0,0.294,0.042,0.504,0.126,0.609c0.063,0.063,0.147,0.084,0.252,0.084l0.168,0c0.252,0,0.378,0.084,0.378,0.357l0,0.987z M56.3515,38.085l0-4.053c-0.42-0.609-1.281-1.071-2.079-1.071c-1.281,0-2.373,1.092-2.373,3.297c0,1.764,0.672,3.255,2.226,3.255c1.029,0,1.911-0.777,2.226-1.428z M68.647,31.239c0,0.063,0,0.126-0.021,0.189l-0.231,1.491c-0.021,0.189-0.126,0.273-0.294,0.273l-0.084,0c-0.168-0.042-0.378-0.063-0.567-0.063c-0.714,0-1.491,0.378-2.016,1.008l0,6.678c0,0.336-0.147,0.525-0.504,0.525l-1.533,0c-0.336,0-0.504-0.168-0.504-0.525l0-6.552l0-2.583c0-0.42,0.21-0.525,0.525-0.525l1.344,0c0.336,0,0.525,0.105,0.525,0.399l0.021,0.672c0.651-0.819,1.365-1.344,2.541-1.344c0.168,0,0.399,0.042,0.588,0.084c0.147,0.042,0.21,0.105,0.21,0.273z M80.9005,36.237c0,3.024-1.848,5.355-5.124,5.355c-3.423,0-4.998-2.31-4.998-5.376c0-3.024,1.848-5.334,5.124-5.334c3.423,0,4.998,2.268,4.998,5.355z M78.2755,36.237c0-1.722-0.546-3.36-2.394-3.36c-1.869,0-2.478,1.617-2.478,3.297c0,1.722,0.525,3.423,2.394,3.423c1.848,0,2.478-1.638,2.478-3.36z M102.0475,40.815c0,0.378-0.147,0.525-0.504,0.525l-1.659,0c-0.378,0-0.546-0.147-0.546-0.525l0-5.859l-5.964,0l0,5.859c0,0.378-0.168,0.525-0.525,0.525l-1.638,0c-0.378,0-0.567-0.147-0.567-0.525l0-13.503c0-0.357,0.231-0.504,0.567-0.504l1.638,0c0.336,0,0.525,0.126,0.525,0.504l0,5.481l5.964,0l0-5.481c0-0.357,0.21-0.504,0.546-0.504l1.659,0c0.336,0,0.504,0.126,0.504,0.504l0,13.503z M115.12,36.216c0,0.504-0.168,0.609-0.693,0.609l-6.153,0c0.168,1.617,1.344,2.73,3.003,2.73c0.882,0,1.806-0.21,2.583-0.504c0.084-0.021,0.147-0.063,0.231-0.063c0.147,0,0.252,0.084,0.294,0.252l0.294,1.071c0.021,0.105,0.042,0.189,0.042,0.252c0,0.147-0.084,0.252-0.336,0.357c-1.029,0.462-2.436,0.672-3.528,0.672c-3.297,0-5.25-2.1-5.25-5.376c0-3.15,2.079-5.334,5.208-5.334c1.281,0,2.331,0.483,3.066,1.26c0.966,1.008,1.239,2.331,1.239,3.759l0,0.315z M112.621,35.166l0-0.231c-0.042-1.092-0.672-2.1-1.953-2.1c-1.365,0-2.184,1.092-2.352,2.331l4.305,0z M127.4155,40.794c0,0.357-0.126,0.546-0.504,0.546l-1.512,0c-0.378,0-0.504-0.189-0.504-0.546l0-5.712c0-1.155-0.315-1.974-1.596-1.974c-0.819,0-1.827,0.441-2.478,1.008l0,6.699c0,0.357-0.147,0.525-0.504,0.525l-1.533,0c-0.315,0-0.504-0.168-0.504-0.504l0-9.156c0-0.336,0.147-0.525,0.525-0.525l1.365,0c0.294,0,0.483,0.084,0.504,0.399l0.021,0.546c0.966-0.777,2.184-1.218,3.402-1.218c2.352,0,3.318,1.47,3.318,3.759l0,6.153z M137.065,31.239c0,0.063,0,0.126-0.021,0.189l-0.231,1.491c-0.021,0.189-0.126,0.273-0.294,0.273l-0.084,0c-0.168-0.042-0.378-0.063-0.567-0.063c-0.714,0-1.491,0.378-2.016,1.008l0,6.678c0,0.336-0.147,0.525-0.504,0.525l-1.533,0c-0.336,0-0.504-0.168-0.504-0.525l0-6.552l0-2.583c0-0.42,0.21-0.525,0.525-0.525l1.344,0c0.336,0,0.525,0.105,0.525,0.399l0.021,0.672c0.651-0.819,1.365-1.344,2.541-1.344c0.168,0,0.399,0.042,0.588,0.084c0.147,0.042,0.21,0.105,0.21,0.273z M142.6405,28.488c0,0.819-0.714,1.323-1.407,1.323s-1.428-0.462-1.428-1.302s0.693-1.344,1.428-1.344c0.714,0,1.407,0.483,1.407,1.323z M142.5145,40.815c0,0.378-0.168,0.525-0.525,0.525l-1.47,0c-0.378,0-0.546-0.147-0.546-0.525l0-9.177c0-0.357,0.21-0.483,0.546-0.483l1.47,0c0.336,0,0.525,0.105,0.525,0.483l0,9.177z M155.545,45.33c0,0.378-0.126,0.546-0.483,0.546l-1.533,0c-0.336,0-0.525-0.147-0.525-0.483l0-4.872c-0.651,0.63-1.68,1.071-2.667,1.071c-1.134,0-1.974-0.294-2.667-0.861c-1.197-0.987-1.743-2.688-1.743-4.494c0-1.659,0.525-3.192,1.554-4.179c0.798-0.756,1.806-1.155,3.003-1.155c0.924,0,2.079,0.378,2.73,1.113l0.042-0.525c0.021-0.231,0.147-0.336,0.483-0.336l1.302,0c0.378,0,0.504,0.168,0.504,0.504l0,13.671z M153.004,38.463l0-4.389c-0.483-0.588-1.344-1.092-2.121-1.092c-1.827,0-2.31,1.68-2.31,3.234c0,0.966,0.189,1.911,0.672,2.52c0.336,0.42,0.84,0.714,1.575,0.714c0.798,0,1.659-0.441,2.184-0.987z M168.4915,40.752c0,0.441-0.126,0.588-0.546,0.588l-1.344,0c-0.273,0-0.483-0.147-0.504-0.42l-0.021-0.525c-0.966,0.777-2.121,1.197-3.339,1.197c-2.352,0-3.318-1.491-3.318-3.759l0-6.195c0-0.357,0.21-0.483,0.546-0.483l1.47,0c0.336,0,0.525,0.105,0.525,0.483l0,5.754c0,1.155,0.294,1.953,1.554,1.953c0.798,0,1.806-0.441,2.436-1.008l0-6.699c0-0.357,0.189-0.483,0.525-0.483l1.491,0c0.336,0,0.525,0.105,0.525,0.483l0,9.114z M181.27,36.216c0,0.504-0.168,0.609-0.693,0.609l-6.153,0c0.168,1.617,1.344,2.73,3.003,2.73c0.882,0,1.806-0.21,2.583-0.504c0.084-0.021,0.147-0.063,0.231-0.063c0.147,0,0.252,0.084,0.294,0.252l0.294,1.071c0.021,0.105,0.042,0.189,0.042,0.252c0,0.147-0.084,0.252-0.336,0.357c-1.029,0.462-2.436,0.672-3.528,0.672c-3.297,0-5.25-2.1-5.25-5.376c0-3.15,2.079-5.334,5.208-5.334c1.281,0,2.331,0.483,3.066,1.26c0.966,1.008,1.239,2.331,1.239,3.759l0,0.315z M178.771,35.166l0-0.231c-0.042-1.092-0.672-2.1-1.953-2.1c-1.365,0-2.184,1.092-2.352,2.331l4.305,0z M191.2135,38.337c0,2.205-1.911,3.255-4.053,3.255c-1.092,0-2.289-0.315-3.234-0.735c-0.189-0.084-0.252-0.21-0.252-0.336c0-0.063,0.021-0.126,0.042-0.189l0.336-1.071c0.063-0.21,0.168-0.294,0.294-0.294c0.063,0,0.126,0,0.231,0.042c0.924,0.378,1.911,0.651,2.646,0.651c0.924,0,1.554-0.42,1.554-1.113c0-0.588-0.399-0.903-1.26-1.239l-1.659-0.63c-1.197-0.441-2.163-1.365-2.163-2.793c0-2.058,1.932-3.003,3.801-3.003c1.008,0,1.995,0.168,3.045,0.63c0.168,0.084,0.252,0.168,0.252,0.294c0,0.063-0.021,0.126-0.042,0.21l-0.357,1.134c-0.042,0.147-0.147,0.231-0.294,0.231c-0.063,0-0.147-0.021-0.21-0.042c-0.693-0.273-1.596-0.504-2.268-0.504c-0.882,0-1.323,0.483-1.323,0.966c0,0.462,0.231,0.756,1.029,1.071l1.89,0.777c1.113,0.462,1.995,1.323,1.995,2.688z"/><path fill="#" d=""/></svg>
